<svg width="87" height="19" viewBox="0 0 87 19" fill="none" xmlns="http://www.w3.org/2000/svg">
<path d="M21.6898 3.5498C23.6739 3.5498 25.1977 4.02599 26.2612 4.97837C27.3247 5.91488 27.8565 7.33552 27.8565 9.24028V16.5498H24.3803V14.9546C23.6819 16.145 22.3803 16.7403 20.4755 16.7403C19.4914 16.7403 18.6342 16.5736 17.9041 16.2403C17.1898 15.9069 16.6422 15.4466 16.2612 14.8593C15.8803 14.272 15.6898 13.6054 15.6898 12.8593C15.6898 11.6689 16.1342 10.7323 17.0231 10.0498C17.9279 9.36726 19.3168 9.02599 21.1898 9.02599H24.1422C24.1422 8.21647 23.8961 7.59742 23.4041 7.16885C22.912 6.72441 22.1739 6.50218 21.1898 6.50218C20.5073 6.50218 19.8326 6.6133 19.166 6.83552C18.5152 7.04187 17.9596 7.32758 17.4993 7.69266L16.166 5.09742C16.8644 4.60536 17.6977 4.22441 18.666 3.95456C19.6501 3.68472 20.658 3.5498 21.6898 3.5498ZM21.4041 14.2403C22.039 14.2403 22.6025 14.0974 23.0946 13.8117C23.5866 13.5101 23.9358 13.0736 24.1422 12.5022V11.1927H21.5946C20.0707 11.1927 19.3088 11.6927 19.3088 12.6927C19.3088 13.1689 19.4914 13.5498 19.8565 13.8355C20.2374 14.1054 20.7533 14.2403 21.4041 14.2403Z" fill="#F42155"/>
<path d="M42.7673 6.53905C42.7911 6.58029 42.9372 6.88087 43.2055 7.44079L34.8133 12.286C35.3613 12.8861 36.0322 13.2227 36.826 13.2959C37.6197 13.3692 38.4359 13.1637 39.2744 12.6796C39.8518 12.3463 40.3128 11.9702 40.6574 11.5512C41.0079 11.1106 41.2684 10.5936 41.439 10.0003L44.2219 10.8679C43.8676 12.667 42.687 14.146 40.68 15.3047C39.4291 16.0269 38.1836 16.4252 36.9436 16.4997C35.6956 16.5604 34.5605 16.3085 33.5381 15.744C32.5157 15.1796 31.6871 14.3475 31.0522 13.2478C30.4252 12.1618 30.116 11.039 30.1246 9.87935C30.1391 8.69799 30.4541 7.60881 31.0699 6.61181C31.6914 5.59313 32.5589 4.76236 33.6724 4.1195C34.7584 3.49252 35.8762 3.15875 37.0258 3.11819C38.1754 3.07763 39.2516 3.35438 40.2544 3.94844C41.263 4.52081 42.1007 5.38435 42.7673 6.53905ZM35.0978 6.54072C34.3692 6.96135 33.8765 7.52072 33.6198 8.21883C33.363 8.91694 33.386 9.65515 33.6887 10.4335L39.1529 7.27869C38.6382 6.64111 38.0143 6.25899 37.2814 6.13231C36.5405 5.99188 35.8126 6.12802 35.0978 6.54072Z" fill="#F42155"/>
<path d="M62.779 3.5498C64.3821 3.5498 65.652 4.02599 66.5885 4.97837C67.5409 5.91488 68.0171 7.32758 68.0171 9.21647V16.5498H64.3028V9.7879C64.3028 8.77203 64.0885 8.01806 63.6599 7.52599C63.2472 7.01806 62.652 6.76409 61.8742 6.76409C61.0012 6.76409 60.3107 7.0498 59.8028 7.62123C59.2948 8.17679 59.0409 9.01012 59.0409 10.1212V16.5498H55.3266V9.7879C55.3266 7.77203 54.5171 6.76409 52.898 6.76409C52.0409 6.76409 51.3583 7.0498 50.8504 7.62123C50.3425 8.17679 50.0885 9.01012 50.0885 10.1212V16.5498H46.3742V3.74028H49.9218V5.21647C50.398 4.67679 50.9774 4.26409 51.6599 3.97837C52.3583 3.69266 53.1202 3.5498 53.9456 3.5498C54.8504 3.5498 55.6679 3.73234 56.398 4.09742C57.1282 4.44663 57.7155 4.9625 58.1599 5.64504C58.6837 4.97837 59.3425 4.4625 60.1361 4.09742C60.9456 3.73234 61.8266 3.5498 62.779 3.5498Z" fill="#F42155"/>
<path d="M83.3564 6.53905C83.3802 6.58029 83.5263 6.88087 83.7946 7.44079L75.4024 12.286C75.9504 12.8861 76.6213 13.2227 77.4151 13.2959C78.2088 13.3692 79.025 13.1637 79.8635 12.6796C80.4409 12.3463 80.9019 11.9702 81.2465 11.5512C81.597 11.1106 81.8575 10.5936 82.0281 10.0003L84.811 10.8679C84.4567 12.667 83.2761 14.146 81.2691 15.3047C80.0182 16.0269 78.7727 16.4252 77.5327 16.4997C76.2847 16.5604 75.1496 16.3085 74.1272 15.744C73.1048 15.1796 72.2762 14.3475 71.6413 13.2478C71.0143 12.1618 70.7051 11.039 70.7137 9.87935C70.7282 8.69799 71.0432 7.60881 71.659 6.61181C72.2805 5.59313 73.148 4.76236 74.2615 4.1195C75.3475 3.49252 76.4653 3.15875 77.6149 3.11819C78.7645 3.07763 79.8407 3.35438 80.8435 3.94844C81.8521 4.52081 82.6898 5.38435 83.3564 6.53905ZM75.6869 6.54072C74.9583 6.96135 74.4657 7.52072 74.2089 8.21883C73.9521 8.91694 73.9751 9.65515 74.2778 10.4335L79.742 7.27869C79.2273 6.64111 78.6034 6.25899 77.8705 6.13231C77.1296 5.99188 76.4017 6.12802 75.6869 6.54072Z" fill="#F42155"/>
<path d="M3.54762 3.19254C3.58278 3.1824 3.61811 3.17263 3.6536 3.16324C4.27069 3 5.02225 3 6.52538 3C7.13373 3 7.61898 3 8.02203 3.01082V3.00359C9.50031 3.04892 10.6993 3.52392 11.619 4.42857C12.6032 5.38095 13.0952 6.79365 13.0952 8.66667V15.9899C11.9564 14.8323 10.7132 13.7777 9.38095 12.8412V9.23809C9.38095 8.22222 9.15873 7.46825 8.71429 6.97619C8.26984 6.46825 7.62699 6.21428 6.78572 6.21428C5.84921 6.21428 5.10318 6.50793 4.54762 7.09524C3.99206 7.66667 3.71429 8.52381 3.71429 9.66667V9.80093C2.51618 9.3338 1.27622 8.95032 0.00159582 8.65768C0.00747045 7.70678 0.0349255 7.13865 0.163235 6.65361C0.605222 4.98277 1.89222 3.67021 3.54762 3.19254Z" fill="#F42155"/>
<path d="M0 14.4754C1.29388 14.8576 2.53627 15.3593 3.71429 15.9678V16H0V14.4754Z" fill="#F42155"/>
</svg>
